<svg xmlns="http://www.w3.org/2000/svg" width="180" height="180" viewBox="0 0 180 180">
  <defs>
    <linearGradient id="g" x1="0" y1="0" x2="1" y2="1">
      <stop offset="0%" stop-color="#6366f1"/>
      <stop offset="100%" stop-color="#0ea5e9"/>
    </linearGradient>
  </defs>
  <rect width="180" height="180" rx="36" fill="url(#g)"/>
  <!-- Lucide palette icon scaled to 108×108, centered -->
  <g transform="translate(36,36) scale(4.5)" fill="none" stroke="white" stroke-width="2" stroke-linecap="round" stroke-linejoin="round">
    <circle cx="13.5" cy="6.5" r="0.5" fill="white"/>
    <circle cx="17.5" cy="10.5" r="0.5" fill="white"/>
    <circle cx="8.5" cy="7.5" r="0.5" fill="white"/>
    <circle cx="6.5" cy="12" r="0.5" fill="white"/>
    <path d="M12 2C6.5 2 2 6.5 2 12s4.5 10 10 10c.926 0 1.648-.746 1.648-1.688 0-.437-.18-.835-.437-1.125-.29-.289-.438-.652-.438-1.125a1.64 1.64 0 0 1 1.668-1.668h1.996c3.051 0 5.563-2.503 5.563-5.563C22 6.81 17.5 2 12 2Z"/>
  </g>
</svg>
